<?xml version="1.0" encoding="UTF-8"?>
<mxfile host="app.diagrams.net" modified="2024-01-01T00:00:00.000Z" agent="5.0" etag="xxx" version="22.1.16" type="device">
  <diagram name="Adventure Works Dimensional Model" id="dimensional-model">
    <mxGraphModel dx="1422" dy="794" grid="1" gridSize="10" guides="1" tooltips="1" connect="1" arrows="1" fold="1" page="1" pageScale="1" pageWidth="1169" pageHeight="827" math="0" shadow="0">
      <root>
        <mxCell id="0" />
        <mxCell id="1" parent="0" />
        
        <!-- Fact Table -->
        <mxCell id="fact-sales" value="&lt;b&gt;Fact Sales&lt;/b&gt;&lt;br&gt;&lt;br&gt;&lt;b&gt;Measures:&lt;/b&gt;&lt;br&gt;• Order Count (distinct salesorderid)&lt;br&gt;• Quantity Purchased (sum orderqty)&lt;br&gt;• Total Amount (sum unitprice * orderqty)&lt;br&gt;• Net Amount (sum unitprice * orderqty * (1-discount))&lt;br&gt;&lt;br&gt;&lt;b&gt;Foreign Keys:&lt;/b&gt;&lt;br&gt;• customer_key&lt;br&gt;• product_key&lt;br&gt;• date_key&lt;br&gt;• salesperson_key&lt;br&gt;• location_key&lt;br&gt;• sales_reason_key" style="rounded=1;whiteSpace=wrap;html=1;fillColor=#dae8fc;strokeColor=#6c8ebf;fontSize=12;align=left;verticalAlign=top;" vertex="1" parent="1">
          <mxGeometry x="400" y="300" width="200" height="200" as="geometry" />
        </mxCell>
        
        <!-- Dimension Tables -->
        <mxCell id="dim-customer" value="&lt;b&gt;Dim Customer&lt;/b&gt;&lt;br&gt;&lt;br&gt;&lt;b&gt;Source:&lt;/b&gt; person table&lt;br&gt;&lt;br&gt;&lt;b&gt;Attributes:&lt;/b&gt;&lt;br&gt;• customer_key (PK)&lt;br&gt;• customer_name&lt;br&gt;• customer_type&lt;br&gt;• email&lt;br&gt;• phone" style="rounded=1;whiteSpace=wrap;html=1;fillColor=#d5e8d4;strokeColor=#82b366;fontSize=12;align=left;verticalAlign=top;" vertex="1" parent="1">
          <mxGeometry x="50" y="100" width="180" height="140" as="geometry" />
        </mxCell>
        
        <mxCell id="dim-product" value="&lt;b&gt;Dim Product&lt;/b&gt;&lt;br&gt;&lt;br&gt;&lt;b&gt;Source:&lt;/b&gt; product table&lt;br&gt;&lt;br&gt;&lt;b&gt;Attributes:&lt;/b&gt;&lt;br&gt;• product_key (PK)&lt;br&gt;• product_name&lt;br&gt;• product_number&lt;br&gt;• category&lt;br&gt;• subcategory&lt;br&gt;• color&lt;br&gt;• size" style="rounded=1;whiteSpace=wrap;html=1;fillColor=#d5e8d4;strokeColor=#82b366;fontSize=12;align=left;verticalAlign=top;" vertex="1" parent="1">
          <mxGeometry x="50" y="300" width="180" height="160" as="geometry" />
        </mxCell>
        
        <mxCell id="dim-date" value="&lt;b&gt;Dim Date&lt;/b&gt;&lt;br&gt;&lt;br&gt;&lt;b&gt;Source:&lt;/b&gt; salesorderheader.orderdate&lt;br&gt;&lt;br&gt;&lt;b&gt;Attributes:&lt;/b&gt;&lt;br&gt;• date_key (PK)&lt;br&gt;• full_date&lt;br&gt;• day_of_week&lt;br&gt;• month&lt;br&gt;• quarter&lt;br&gt;• year&lt;br&gt;• is_weekend&lt;br&gt;• is_holiday" style="rounded=1;whiteSpace=wrap;html=1;fillColor=#d5e8d4;strokeColor=#82b366;fontSize=12;align=left;verticalAlign=top;" vertex="1" parent="1">
          <mxGeometry x="50" y="500" width="180" height="160" as="geometry" />
        </mxCell>
        
        <mxCell id="dim-salesperson" value="&lt;b&gt;Dim Salesperson&lt;/b&gt;&lt;br&gt;&lt;br&gt;&lt;b&gt;Source:&lt;/b&gt; person table&lt;br&gt;&lt;br&gt;&lt;b&gt;Attributes:&lt;/b&gt;&lt;br&gt;• salesperson_key (PK)&lt;br&gt;• salesperson_name&lt;br&gt;• territory&lt;br&gt;• hire_date&lt;br&gt;• manager" style="rounded=1;whiteSpace=wrap;html=1;fillColor=#d5e8d4;strokeColor=#82b366;fontSize=12;align=left;verticalAlign=top;" vertex="1" parent="1">
          <mxGeometry x="700" y="100" width="180" height="140" as="geometry" />
        </mxCell>
        
        <mxCell id="dim-location" value="&lt;b&gt;Dim Location&lt;/b&gt;&lt;br&gt;&lt;br&gt;&lt;b&gt;Source:&lt;/b&gt; address, stateprovince, countryregion&lt;br&gt;&lt;br&gt;&lt;b&gt;Attributes:&lt;/b&gt;&lt;br&gt;• location_key (PK)&lt;br&gt;• city&lt;br&gt;• state_province&lt;br&gt;• country_region&lt;br&gt;• postal_code&lt;br&gt;• address_line1&lt;br&gt;• address_line2" style="rounded=1;whiteSpace=wrap;html=1;fillColor=#d5e8d4;strokeColor=#82b366;fontSize="12" align="left" verticalAlign="top;" vertex="1" parent="1">
          <mxGeometry x="700" y="300" width="180" height="160" as="geometry" />
        </mxCell>
        
        <mxCell id="dim-sales-reason" value="&lt;b&gt;Dim Sales Reason&lt;/b&gt;&lt;br&gt;&lt;br&gt;&lt;b&gt;Source:&lt;/b&gt; salesreason table&lt;br&gt;&lt;br&gt;&lt;b&gt;Attributes:&lt;/b&gt;&lt;br&gt;• sales_reason_key (PK)&lt;br&gt;• reason_name&lt;br&gt;• reason_type&lt;br&gt;• description" style="rounded=1;whiteSpace=wrap;html=1;fillColor=#d5e8d4;strokeColor=#82b366;fontSize=12;align=left;verticalAlign=top;" vertex="1" parent="1">
          <mxGeometry x="700" y="500" width="180" height="140" as="geometry" />
        </mxCell>
        
        <!-- Relationships -->
        <mxCell id="rel1" value="" style="endArrow=classic;html=1;rounded=0;exitX=1;exitY=0.5;exitDx=0;exitDy=0;entryX=0;entryY=0.5;entryDx=0;entryDy=0;" edge="1" parent="1" source="dim-customer" target="fact-sales">
          <mxGeometry width="50" height="50" relative="1" as="geometry">
            <mxPoint x="290" y="170" as="sourcePoint" />
            <mxPoint x="340" y="120" as="targetPoint" />
          </mxGeometry>
        </mxCell>
        
        <mxCell id="rel2" value="" style="endArrow=classic;html=1;rounded=0;exitX=1;exitY=0.5;exitDx=0;exitDy=0;entryX=0;entryY=0.5;entryDx=0;entryDy=0;" edge="1" parent="1" source="dim-product" target="fact-sales">
          <mxGeometry width="50" height="50" relative="1" as="geometry">
            <mxPoint x="290" y="380" as="sourcePoint" />
            <mxPoint x="340" y="330" as="targetPoint" />
          </mxGeometry>
        </mxCell>
        
        <mxCell id="rel3" value="" style="endArrow=classic;html=1;rounded=0;exitX=1;exitY=0.5;exitDx=0;exitDy=0;entryX=0;entryY=0.5;entryDx=0;entryDy=0;" edge="1" parent="1" source="dim-date" target="fact-sales">
          <mxGeometry width="50" height="50" relative="1" as="geometry">
            <mxPoint x="290" y="580" as="sourcePoint" />
            <mxPoint x="340" y="530" as="targetPoint" />
          </mxGeometry>
        </mxCell>
        
        <mxCell id="rel4" value="" style="endArrow=classic;html=1;rounded=0;exitX=0;exitY=0.5;exitDx=0;exitDy=0;entryX=1;entryY=0.5;entryDx=0;entryDy=0;" edge="1" parent="1" source="dim-salesperson" target="fact-sales">
          <mxGeometry width="50" height="50" relative="1" as="geometry">
            <mxPoint x="790" y="170" as="sourcePoint" />
            <mxPoint x="740" y="120" as="targetPoint" />
          </mxGeometry>
        </mxCell>
        
        <mxCell id="rel5" value="" style="endArrow=classic;html=1;rounded=0;exitX=0;exitY=0.5;exitDx=0;exitDy=0;entryX=1;entryY=0.5;entryDx=0;entryDy=0;" edge="1" parent="1" source="dim-location" target="fact-sales">
          <mxGeometry width="50" height="50" relative="1" as="geometry">
            <mxPoint x="790" y="380" as="sourcePoint" />
            <mxPoint x="740" y="330" as="targetPoint" />
          </mxGeometry>
        </mxCell>
        
        <mxCell id="rel6" value="" style="endArrow=classic;html=1;rounded=0;exitX=0;exitY=0.5;exitDx=0;exitDy=0;entryX=1;entryY=0.5;entryDx=0;entryDy=0;" edge="1" parent="1" source="dim-sales-reason" target="fact-sales">
          <mxGeometry width="50" height="50" relative="1" as="geometry">
            <mxPoint x="790" y="570" as="sourcePoint" />
            <mxPoint x="740" y="520" as="targetPoint" />
          </mxGeometry>
        </mxCell>
        
        <!-- Title -->
        <mxCell id="title" value="&lt;b&gt;Adventure Works - Conceptual Data Warehouse Design&lt;/b&gt;&lt;br&gt;&lt;br&gt;Star Schema: Sales Fact Table with 6 Dimension Tables&lt;br&gt;Supporting Business Questions: Sales Performance Analysis by Product, Customer, Location, Time, Salesperson, and Sales Reason" style="text;html=1;strokeColor=none;fillColor=none;align=center;verticalAlign=middle;whiteSpace=wrap;rounded=0;fontSize=14;fontStyle=1" vertex="1" parent="1">
          <mxGeometry x="200" y="20" width="600" height="60" as="geometry" />
        </mxCell>
        
        <!-- Source Tables Mapping -->
        <mxCell id="source-mapping" value="&lt;b&gt;Source Tables Mapping:&lt;/b&gt;&lt;br&gt;• sales.salesorderheader → Date, Customer, Salesperson, Location&lt;br&gt;• sales.salesorderdetail → Product, Quantity, Unit Price, Discount&lt;br&gt;• sales.salesreason → Sales Reason&lt;br&gt;• person.person → Customer, Salesperson&lt;br&gt;• production.product → Product&lt;br&gt;• person.address → Location&lt;br&gt;• person.stateprovince → Location&lt;br&gt;• person.countryregion → Location" style="text;html=1;strokeColor=none;fillColor=#fff2cc;align=left;verticalAlign=top;whiteSpace=wrap;rounded=1;fontSize=11;fontStyle=2" vertex="1" parent="1">
          <mxGeometry x="200" y="650" width="600" height="80" as="geometry" />
        </mxCell>
        
      </root>
    </mxGraphModel>
  </diagram>
</mxfile>
